<svg xmlns="http://www.w3.org/2000/svg" viewBox="0 0 240 200" width="240" height="200">
  <!-- Elbphilharmonie Hamburg - Stylized silhouette -->
  <!-- Base / Speicherstadt brick warehouse portion -->
  <rect x="20" y="120" width="200" height="60" rx="2" fill="#ffffff" opacity="0.9"/>
  <!-- Warehouse windows grid -->
  <rect x="30" y="130" width="12" height="10" rx="1" fill="#cf0a2c" opacity="0.6"/>
  <rect x="50" y="130" width="12" height="10" rx="1" fill="#cf0a2c" opacity="0.6"/>
  <rect x="70" y="130" width="12" height="10" rx="1" fill="#cf0a2c" opacity="0.6"/>
  <rect x="90" y="130" width="12" height="10" rx="1" fill="#cf0a2c" opacity="0.6"/>
  <rect x="110" y="130" width="12" height="10" rx="1" fill="#cf0a2c" opacity="0.6"/>
  <rect x="130" y="130" width="12" height="10" rx="1" fill="#cf0a2c" opacity="0.6"/>
  <rect x="150" y="130" width="12" height="10" rx="1" fill="#cf0a2c" opacity="0.6"/>
  <rect x="170" y="130" width="12" height="10" rx="1" fill="#cf0a2c" opacity="0.6"/>
  <rect x="190" y="130" width="12" height="10" rx="1" fill="#cf0a2c" opacity="0.6"/>
  <rect x="30" y="148" width="12" height="10" rx="1" fill="#cf0a2c" opacity="0.6"/>
  <rect x="50" y="148" width="12" height="10" rx="1" fill="#cf0a2c" opacity="0.6"/>
  <rect x="70" y="148" width="12" height="10" rx="1" fill="#cf0a2c" opacity="0.6"/>
  <rect x="90" y="148" width="12" height="10" rx="1" fill="#cf0a2c" opacity="0.6"/>
  <rect x="110" y="148" width="12" height="10" rx="1" fill="#cf0a2c" opacity="0.6"/>
  <rect x="130" y="148" width="12" height="10" rx="1" fill="#cf0a2c" opacity="0.6"/>
  <rect x="150" y="148" width="12" height="10" rx="1" fill="#cf0a2c" opacity="0.6"/>
  <rect x="170" y="148" width="12" height="10" rx="1" fill="#cf0a2c" opacity="0.6"/>
  <rect x="190" y="148" width="12" height="10" rx="1" fill="#cf0a2c" opacity="0.6"/>
  <rect x="30" y="166" width="12" height="10" rx="1" fill="#cf0a2c" opacity="0.6"/>
  <rect x="50" y="166" width="12" height="10" rx="1" fill="#cf0a2c" opacity="0.6"/>
  <rect x="70" y="166" width="12" height="10" rx="1" fill="#cf0a2c" opacity="0.6"/>
  <rect x="90" y="166" width="12" height="10" rx="1" fill="#cf0a2c" opacity="0.6"/>
  <rect x="110" y="166" width="12" height="10" rx="1" fill="#cf0a2c" opacity="0.6"/>
  <rect x="130" y="166" width="12" height="10" rx="1" fill="#cf0a2c" opacity="0.6"/>
  <rect x="150" y="166" width="12" height="10" rx="1" fill="#cf0a2c" opacity="0.6"/>
  <rect x="170" y="166" width="12" height="10" rx="1" fill="#cf0a2c" opacity="0.6"/>
  <rect x="190" y="166" width="12" height="10" rx="1" fill="#cf0a2c" opacity="0.6"/>
  <!-- Glass facade / upper wave-roof structure -->
  <path d="M15,120 L15,85 Q40,70 60,80 Q80,90 100,75 Q120,60 140,70 Q160,80 180,65 Q200,50 225,60 L225,120 Z" fill="#ffffff" opacity="0.95"/>
  <!-- Glass panel lines -->
  <line x1="40" y1="120" x2="40" y2="78" stroke="#cf0a2c" stroke-width="0.5" opacity="0.3"/>
  <line x1="60" y1="120" x2="60" y2="80" stroke="#cf0a2c" stroke-width="0.5" opacity="0.3"/>
  <line x1="80" y1="120" x2="80" y2="85" stroke="#cf0a2c" stroke-width="0.5" opacity="0.3"/>
  <line x1="100" y1="120" x2="100" y2="75" stroke="#cf0a2c" stroke-width="0.5" opacity="0.3"/>
  <line x1="120" y1="120" x2="120" y2="68" stroke="#cf0a2c" stroke-width="0.5" opacity="0.3"/>
  <line x1="140" y1="120" x2="140" y2="70" stroke="#cf0a2c" stroke-width="0.5" opacity="0.3"/>
  <line x1="160" y1="120" x2="160" y2="75" stroke="#cf0a2c" stroke-width="0.5" opacity="0.3"/>
  <line x1="180" y1="120" x2="180" y2="65" stroke="#cf0a2c" stroke-width="0.5" opacity="0.3"/>
  <line x1="200" y1="120" x2="200" y2="58" stroke="#cf0a2c" stroke-width="0.5" opacity="0.3"/>
  <!-- Iconic wave roof line -->
  <path d="M15,85 Q40,70 60,80 Q80,90 100,75 Q120,60 140,70 Q160,80 180,65 Q200,50 225,60" fill="none" stroke="#ffffff" stroke-width="2.5" opacity="1"/>
  <!-- Water reflection line -->
  <line x1="10" y1="190" x2="230" y2="190" stroke="#ffffff" stroke-width="1" opacity="0.3"/>
  <line x1="20" y1="195" x2="220" y2="195" stroke="#ffffff" stroke-width="0.5" opacity="0.2"/>
</svg>
